<mxfile host="app.diagrams.net" modified="2023-09-08T18:01:42.006Z" agent="Mozilla/5.0 (Windows NT 10.0; Win64; x64) AppleWebKit/537.36 (KHTML, like Gecko) Chrome/116.0.0.0 Safari/537.36" version="21.7.4" etag="BokdNvAdrz0Rx2bG78uo" type="github">
  <diagram name="Page-1" id="eVJX51GVJSGGyuf_ej1W">
    <mxGraphModel>
      <root>
        <mxCell id="0" />
        <mxCell id="1" parent="0" />
      </root>
    </mxGraphModel>
  </diagram>
</mxfile>
